<svg xmlns="http://www.w3.org/2000/svg" width="800" height="600" viewBox="0 0 800 600">
  <defs>
    <linearGradient id="bg" x1="0" y1="0" x2="1" y2="1">
      <stop offset="0" stop-color="#fff7ed"/>
      <stop offset="1" stop-color="#dcfce7"/>
    </linearGradient>
  </defs>
  <rect width="800" height="600" rx="48" fill="url(#bg)"/>
  <rect x="80" y="75" width="560" height="390" rx="30" fill="#ffffff" stroke="#e7d8c7" stroke-width="8"/>
  <rect x="120" y="120" width="185" height="90" rx="20" fill="#fde68a"/>
  <rect x="335" y="120" width="250" height="26" rx="13" fill="#16a34a" opacity=".85"/>
  <rect x="335" y="164" width="210" height="22" rx="11" fill="#92400e" opacity=".25"/>
  <rect x="335" y="200" width="170" height="22" rx="11" fill="#92400e" opacity=".18"/>
  <circle cx="190" cy="325" r="58" fill="#c0392b" opacity=".9"/>
  <rect x="285" y="284" width="250" height="26" rx="13" fill="#16a34a" opacity=".55"/>
  <rect x="285" y="330" width="210" height="22" rx="11" fill="#92400e" opacity=".22"/>
  <rect x="285" y="370" width="170" height="22" rx="11" fill="#92400e" opacity=".16"/>
  <g transform="translate(602 362)">
    <rect x="0" y="0" width="110" height="110" rx="20" fill="#f97316" opacity=".95"/>
    <path d="M20 76 L50 25 L80 76 Z" fill="#fff7ed"/>
    <circle cx="78" cy="30" r="10" fill="#fff7ed"/>
  </g>
  <text x="80" y="535" font-family="Poppins, Arial, sans-serif" font-size="34" font-weight="800" fill="#7c2d12">+600 Moldes Educacionais</text>
</svg>
